<svg xmlns="http://www.w3.org/2000/svg" width="26" height="32" viewBox="0 0 26 32">
  <path d="M10 2C10 1 11.5 0.5 12 1.5L12 10L16 10C16 10 17 6 18 5C19 4 21 5 21 7L21 12L22 12C23 12 24 13 24 14L24 24C24 28 21 31 17 31L12 31C8 31 5 28 5 24L5 14C5 12.5 6.5 11 8 11L10 11L10 2Z" fill="white" stroke="black" stroke-width="1.5" stroke-linejoin="round"/>
  <line x1="12" y1="14" x2="12" y2="24" stroke="black" stroke-width="0.8" opacity="0.3"/>
  <line x1="16" y1="12" x2="16" y2="24" stroke="black" stroke-width="0.8" opacity="0.3"/>
  <line x1="20" y1="14" x2="20" y2="24" stroke="black" stroke-width="0.8" opacity="0.3"/>
</svg>
